<svg width="15" height="15" viewBox="0 0 15 15" fill="none" xmlns="http://www.w3.org/2000/svg">
<g clip-path="url(#clip0_227_1289)">
<path d="M14.2602 12.3737C13.1465 10.6291 12.9529 8.79296 12.6224 6.23118C12.2302 3.19169 10.7503 1.53419 8.47106 1.18134C8.48313 1.11914 8.48995 1.05539 8.48995 0.989824C8.48993 0.443379 8.04658 0 7.49987 0C6.95339 0 6.51004 0.443379 6.51004 0.989824C6.51004 1.05539 6.51687 1.11914 6.52894 1.18134C4.2497 1.53416 2.76983 3.19169 2.37737 6.23118C2.04684 8.79296 1.85345 10.6291 0.739819 12.3737C0.340268 12.9996 0.591342 13.1148 1.33378 13.1148H13.6663C14.4087 13.1148 14.6597 12.9996 14.2602 12.3737ZM6.19917 3.70348C5.9321 3.83256 5.70913 3.99838 5.51392 4.21113C5.27099 4.47609 5.06846 4.82262 4.91471 5.26102C4.76099 5.69889 4.65763 6.22696 4.61354 6.84082C4.59546 7.09084 4.37823 7.27893 4.12847 7.26082C3.87845 7.24271 3.69037 7.02551 3.70847 6.77578C3.75725 6.09864 3.87192 5.49293 4.05842 4.96087C4.24496 4.42884 4.50494 3.96894 4.84493 3.59801C5.11592 3.30182 5.43886 3.06229 5.80537 2.88601C6.03124 2.77714 6.30224 2.87209 6.41111 3.09797C6.51974 3.32364 6.42502 3.59487 6.19917 3.70348Z" fill="#EFDE47"/>
<path d="M7.49991 15C8.31475 15 9.02569 14.5566 9.40582 13.8984H5.59424C5.97439 14.5566 6.68534 15 7.49991 15Z" fill="#EFDE47"/>
</g>
<defs>
<clipPath id="clip0_227_1289">
<rect width="15" height="15" fill="white"/>
</clipPath>
</defs>
</svg>
