<svg width="15" height="15" viewBox="0 0 15 15" fill="none" xmlns="http://www.w3.org/2000/svg">
<g clip-path="url(#clip0_387_1946)">
<path d="M14.2603 12.3737C13.1467 10.6291 12.953 8.79296 12.6225 6.23118C12.2303 3.19169 10.7504 1.53419 8.47118 1.18134C8.48325 1.11914 8.49008 1.05539 8.49008 0.989824C8.49005 0.443379 8.0467 0 7.49999 0C6.95352 0 6.51017 0.443379 6.51017 0.989824C6.51017 1.05539 6.51699 1.11914 6.52906 1.18134C4.24982 1.53416 2.76995 3.19169 2.37749 6.23118C2.04696 8.79296 1.85357 10.6291 0.739941 12.3737C0.34039 12.9996 0.591464 13.1148 1.33391 13.1148H13.6664C14.4088 13.1148 14.6599 12.9996 14.2603 12.3737ZM6.1993 3.70348C5.93223 3.83256 5.70925 3.99838 5.51404 4.21113C5.27111 4.47609 5.06858 4.82262 4.91483 5.26102C4.76111 5.69889 4.65775 6.22696 4.61366 6.84082C4.59559 7.09084 4.37835 7.27893 4.12859 7.26082C3.87857 7.24271 3.69049 7.02551 3.70859 6.77578C3.75737 6.09864 3.87204 5.49293 4.05854 4.96087C4.24508 4.42884 4.50506 3.96894 4.84505 3.59801C5.11604 3.30182 5.43898 3.06229 5.80549 2.88601C6.03137 2.77714 6.30236 2.87209 6.41123 3.09797C6.51986 3.32364 6.42515 3.59487 6.1993 3.70348Z" fill="#EFDE47"/>
<path d="M7.49991 15C8.31475 15 9.02569 14.5566 9.40582 13.8984H5.59424C5.97439 14.5566 6.68534 15 7.49991 15Z" fill="#EFDE47"/>
<circle cx="12" cy="3" r="3" fill="#F44646"/>
</g>
<defs>
<clipPath id="clip0_387_1946">
<rect width="15" height="15" fill="white"/>
</clipPath>
</defs>
</svg>
