<svg width="390" height="200" viewBox="0 0 390 200" fill="none" xmlns="http://www.w3.org/2000/svg">
<rect width="390" height="200" fill="#68C1F2"/>
<g clip-path="url(#clip0_685_2197)">
<path d="M79.5538 89.9025L60.3714 88.2277C59.946 86.2664 59.3002 85.0533 59.0316 82.9712C58.8385 81.5379 58.9954 80.0774 59.4873 78.7165C59.608 78.3876 59.7257 78.0557 59.8403 77.7238C61.1892 73.801 61.2525 70.5602 62.5712 66.6344C62.9846 65.3942 63.8114 64.332 64.9128 63.6289C74.7167 57.4279 81.2798 54.513 91.8411 49.7182L105.61 59.5523C103.35 63.5384 102.27 65.3881 100.013 69.3743C99.2491 70.7231 98.4736 72.087 97.3994 73.2065C95.6855 74.9929 93.3529 76.0128 91.2497 77.3164C90.447 77.8113 89.6746 78.3544 88.9322 78.9368C88.9202 78.4178 91.4338 78.798 92.339 79.1329C92.9938 79.3743 93.6969 79.6821 94.0198 80.3007C94.3034 80.9404 94.2189 81.6858 93.7965 82.244C93.4042 82.8053 91.6722 84.1179 90.4682 84.3412L90.0729 84.4136L90.1604 84.4438C91.3553 84.8511 91.9407 86.3599 91.5515 87.5609C91.1622 88.7619 89.9703 89.471 88.7753 89.8783C87.8097 90.2072 84.7469 90.2072 82.9153 90.2072C82.4355 90.2072 80.2961 90.0352 79.5478 89.9055" fill="#FDF5E6"/>
<path d="M33.2649 151.3V141.267C37.8545 141.3 43.6633 141.369 47.6615 141.369C52.2391 141.369 82.3448 141.387 93.0359 141.387C96.4035 141.387 103.314 141.288 106.376 141.288V151.3" fill="#E8E8E8"/>
<path d="M82.1156 86.3478C83.3589 84.5796 84.7198 82.8928 86.1863 81.3025C87.004 80.4546 87.8791 79.661 88.8055 78.9338C89.9401 78.7045 91.1139 78.7708 92.2123 79.1299C92.8671 79.3713 93.5701 79.6791 93.893 80.2977C94.1767 80.9374 94.0922 81.6827 93.6697 82.241C93.2774 82.8022 91.5454 84.1149 90.3414 84.3382L89.9461 84.4106L90.0336 84.4408C91.2286 84.8481 91.8139 86.3569 91.4247 87.5579C91.0354 88.7588 89.8435 89.4679 88.6486 89.8753C87.683 90.2042 84.6202 90.2042 82.7885 90.2042C81.6902 90.171 80.5978 90.0232 79.5266 89.7727C80.4228 88.6653 81.2677 87.5066 82.1156 86.3508V86.3478Z" fill="#FDF5E6"/>
<path d="M35.0394 123.608C36.9947 120.407 38.9923 117.184 40.3049 115.533C44.9006 115.551 47.8276 115.609 52.4957 115.609C57.1638 115.609 82.6015 115.717 93.2926 115.717C96.0445 115.717 98.2383 115.787 100.254 115.781C102.387 119.679 106.929 127.721 109.095 131.396C109.098 132.721 109.107 133.919 109.113 135.944C109.119 137.444 109.141 139.456 109.138 141.252C107.203 141.252 95.6975 141.384 93.0361 141.384C82.345 141.384 52.2392 141.366 47.6616 141.366C43.0841 141.366 35.5071 141.267 30.7273 141.249C30.7183 139.411 30.7937 137.314 30.7877 135.769C30.7816 134.01 30.7756 132.253 30.7665 130.494C31.8981 128.777 33.4521 126.197 35.0363 123.602L35.0394 123.608Z" fill="#E8E8E8"/>
<path d="M35.664 123.973C36.5964 122.446 37.5318 120.92 38.5005 119.414C39.2337 118.27 39.976 117.111 40.8179 116.046L40.3049 116.257C44.7769 116.276 49.2458 116.327 53.7178 116.333C56.5452 116.339 59.3696 116.345 62.197 116.357C66.2134 116.369 70.2297 116.384 74.246 116.396C78.3347 116.408 82.4235 116.42 86.5122 116.429C90.5044 116.439 94.4966 116.445 98.4887 116.493C99.0772 116.499 99.6656 116.505 100.251 116.502L99.6264 116.143C101.95 120.382 104.334 124.592 106.742 128.786C107.312 129.779 107.888 130.772 108.468 131.761L108.368 131.396C108.38 134.682 108.413 137.966 108.41 141.252L109.135 140.527C104.433 140.527 99.7289 140.615 95.0277 140.651C90.6492 140.684 86.2708 140.66 81.8954 140.657L64.089 140.648L50.0696 140.642C44.4359 140.642 38.8052 140.579 33.1715 140.539C32.3568 140.533 31.539 140.53 30.7243 140.527L31.4485 141.252C31.4425 139.562 31.5028 137.872 31.5089 136.179C31.5179 134.287 31.4968 132.392 31.4877 130.497L31.3882 130.862C32.8788 128.605 34.2548 126.276 35.664 123.97C36.1498 123.174 34.8975 122.443 34.4147 123.24C33.1202 125.361 31.8468 127.495 30.498 129.583C30.3471 129.782 30.2143 129.996 30.1027 130.22C30.0182 130.567 30.0001 130.923 30.0423 131.276C30.0423 131.973 30.0484 132.673 30.0514 133.37C30.0574 134.619 30.0695 135.871 30.0514 137.121C30.0333 138.497 30.0001 139.873 30.0031 141.252C30.0092 141.65 30.329 141.97 30.7273 141.976C36.8378 141.997 42.9453 142.09 49.0527 142.093C53.3798 142.093 57.707 142.097 62.0341 142.1L79.8435 142.109C84.4603 142.109 89.0771 142.13 93.6939 142.109C98.5521 142.087 103.41 142.012 108.269 141.982C108.558 141.982 108.848 141.979 109.138 141.979C109.536 141.973 109.856 141.653 109.862 141.255C109.862 138.973 109.841 136.689 109.832 134.408C109.829 133.506 109.826 132.603 109.82 131.701C109.838 131.451 109.792 131.197 109.684 130.971C109.605 130.826 109.518 130.684 109.433 130.542C109.255 130.241 109.08 129.936 108.902 129.631C107.077 126.481 105.278 123.318 103.504 120.138C102.623 118.566 101.748 116.994 100.879 115.416C100.749 115.192 100.51 115.057 100.254 115.057C97.5563 115.063 94.8587 114.993 92.161 114.993C90.2781 114.993 88.3982 114.99 86.5152 114.984C81.9105 114.975 77.3058 114.963 72.701 114.945C68.3588 114.93 64.0166 114.918 59.6744 114.903C56.7112 114.894 53.748 114.888 50.7848 114.881C47.7371 114.872 44.6864 114.833 41.6387 114.815C41.2464 114.815 40.8511 114.8 40.4588 114.809C39.9398 114.821 39.7497 115.072 39.46 115.452C39.0889 115.938 38.7388 116.439 38.3948 116.942C37.4866 118.279 36.6296 119.646 35.7787 121.019C35.323 121.758 34.8674 122.498 34.4147 123.24C33.9289 124.037 35.1812 124.767 35.664 123.97V123.973Z" fill="#211715"/>
<path d="M36.7351 131.644C41.6024 131.662 46.4726 131.762 51.3399 131.816C54.5988 131.852 57.8577 131.852 61.1167 131.855L74.436 131.864C79.2761 131.864 84.1162 131.87 88.9533 131.87C93.3438 131.87 97.7312 131.882 102.122 131.9C102.52 131.9 102.915 131.9 103.314 131.9C104.246 131.9 104.246 130.452 103.314 130.452C99.0409 130.452 94.768 130.422 90.4952 130.422C85.7517 130.422 81.0082 130.422 76.2646 130.416C71.6599 130.416 67.0551 130.41 62.4504 130.407C59.3303 130.407 56.2132 130.416 53.0931 130.386C48.1112 130.34 43.1262 130.244 38.1443 130.204C37.6766 130.201 37.2089 130.198 36.7381 130.195C35.8057 130.192 35.8057 131.641 36.7381 131.644H36.7351Z" fill="#211715"/>
<path d="M32.5408 142.268V151.3C32.5408 152.232 33.9892 152.232 33.9892 151.3V142.268C33.9892 141.336 32.5408 141.336 32.5408 142.268Z" fill="#211715"/>
<path d="M105.649 142.268V151.3C105.649 152.232 107.098 152.232 107.098 151.3V142.268C107.098 141.336 105.649 141.336 105.649 142.268Z" fill="#211715"/>
<path d="M89.5809 79.4075C90.2357 79.4015 90.8875 79.483 91.5212 79.6489C91.8169 79.7183 92.1066 79.8089 92.3902 79.9205C92.6678 80.0291 92.9273 80.177 93.1627 80.3581C93.3558 80.5119 93.4675 80.7443 93.4735 80.9887C93.4735 81.2935 93.3769 81.5892 93.2019 81.8397C93.1054 81.9936 93.2713 81.7793 93.1899 81.8547C93.1567 81.8879 93.1265 81.9272 93.0933 81.9604C93.0058 82.0509 92.9153 82.1354 92.8217 82.2199C92.6195 82.4039 92.4023 82.5729 92.1729 82.7238C91.6147 83.1583 90.969 83.4691 90.281 83.6381C89.8977 83.7467 89.6744 84.145 89.774 84.5283C89.8857 84.9085 90.281 85.1318 90.6642 85.0352C92.1216 84.6097 93.4252 83.7709 94.415 82.6212C95.0124 81.8034 95.0788 80.7111 94.5839 79.824C94.0891 79.0394 93.1717 78.6169 92.3118 78.3574C91.4276 78.0859 90.5043 77.9501 89.5779 77.9561C88.6455 77.9742 88.6425 79.4226 89.5779 79.4045L89.5809 79.4075Z" fill="#211715"/>
<path d="M91.4821 49.0935C84.9944 52.0386 78.4856 54.9505 72.2574 58.4177C70.6461 59.3139 69.0498 60.2403 67.4717 61.1998C66.6147 61.7188 65.7607 62.2469 64.9128 62.781C64.1252 63.2457 63.4312 63.8522 62.8639 64.5674C62.3328 65.3067 61.9375 66.1335 61.6961 67.0086C61.3914 67.9832 61.1469 68.976 60.9297 69.9748C60.5223 71.8728 60.2145 73.7919 59.7136 75.6688C59.4179 76.7763 58.9985 77.8324 58.6575 78.9247C58.3165 80.0322 58.1777 81.1939 58.2501 82.3496C58.3799 84.4619 59.2218 86.381 59.6744 88.4239C59.8766 89.3322 61.2737 88.9489 61.0715 88.0376C60.6913 86.3177 59.9792 84.6791 59.7528 82.923C59.6261 81.9664 59.6623 80.9948 59.8615 80.0503C60.0727 79.0817 60.477 78.1643 60.7758 77.2168C61.3159 75.346 61.7535 73.4479 62.0884 71.5318C62.2725 70.6054 62.4686 69.6791 62.704 68.7617C62.8941 67.8444 63.1928 66.9542 63.5881 66.1063C64.43 64.5372 66.0564 63.7587 67.5199 62.8655C69.08 61.9089 70.6582 60.9826 72.2514 60.0803C75.1693 58.4358 78.1476 56.8999 81.1652 55.4454C84.8194 53.6832 88.5219 52.0205 92.2153 50.3428C92.5593 50.1406 92.674 49.697 92.4748 49.3531C92.2666 49.0151 91.8321 48.9004 91.4851 49.0935H91.4821Z" fill="#211715"/>
<path d="M70.2205 72.7358C72.1969 73.5837 74.1915 74.3834 76.2072 75.1347C76.5935 75.2373 76.9888 75.011 77.0974 74.6278C77.194 74.2446 76.9707 73.8493 76.5905 73.7376C74.6924 73.0315 72.8125 72.2802 70.9507 71.4835C70.6037 71.2964 70.1692 71.4081 69.961 71.743C69.7618 72.0901 69.8765 72.5306 70.2205 72.7328V72.7358Z" fill="#211715"/>
<path d="M72.9484 73.2005C72.0462 75.1528 70.8814 76.9724 69.4843 78.6079C69.098 79.0032 68.8265 79.4981 68.7058 80.0382C68.6213 80.524 68.6002 81.0189 68.6394 81.5107C68.7239 82.5216 68.9894 83.5265 68.9502 84.5464C68.914 85.4788 70.3624 85.4758 70.3986 84.5464C70.4348 83.5838 70.2025 82.6363 70.1059 81.6827C70.0486 81.2452 70.0516 80.7986 70.1149 80.3611C70.1934 79.8964 70.5646 79.5735 70.8542 79.2235C72.197 77.6121 73.3226 75.8318 74.2037 73.9307C74.3938 73.5837 74.2791 73.1492 73.9442 72.941C73.5972 72.7418 73.1566 72.8595 72.9544 73.2005H72.9484Z" fill="#211715"/>
<path d="M84.3244 84.3321C85.8663 84.1873 87.4204 84.3321 88.908 84.7667C89.1524 84.833 89.3938 84.9085 89.6352 84.993C89.6654 85.002 89.8525 85.0835 89.6775 85.0081C89.7197 85.0262 89.762 85.0503 89.8042 85.0714C89.9822 85.1378 90.1542 85.2253 90.3111 85.3309C90.7608 85.7202 90.9961 86.2996 90.9539 86.894C90.8875 88.264 89.2822 89.0938 88.0842 89.299C87.4173 89.3865 86.7444 89.4348 86.0715 89.4468C85.2779 89.474 84.4843 89.48 83.6877 89.483C83.045 89.483 82.4083 89.4679 81.7655 89.4166C81.3853 89.3865 81.0051 89.3533 80.6249 89.3141C80.2507 89.2748 80.0214 89.2537 79.7498 89.2054C79.3666 89.1119 78.9743 89.3322 78.8597 89.7124C78.7571 90.0986 78.9834 90.4939 79.3666 90.6025C80.7305 90.8258 82.1095 90.9345 83.4916 90.9284C85.1512 90.9284 86.8651 90.9707 88.5097 90.687C90.1784 90.3973 92.0553 89.1421 92.354 87.3768C92.5079 86.5078 92.3208 85.6146 91.835 84.8783C91.3733 84.2476 90.7155 83.789 89.9641 83.5747C89.1343 83.2971 88.2804 83.101 87.4113 82.9984C86.3944 82.8264 85.3564 82.7902 84.3304 82.8867C83.9351 82.8988 83.6183 83.2156 83.6062 83.6109C83.6062 84.0093 83.9321 84.3321 84.3304 84.3351L84.3244 84.3321Z" fill="#211715"/>
<path d="M51.1226 123.466C48.3465 113.78 45.0967 103.023 42.3296 93.3847C45.7967 92.3889 51.8619 90.6569 56.5451 89.308C61.1438 87.9833 66.4848 86.5651 69.3786 85.7353C71.2948 85.1861 77.0944 83.442 77.9393 83.2006C78.1596 83.973 82.8277 100.388 83.8899 104.091C84.6925 106.891 89.1132 121.713 89.6352 123.533L51.1226 123.463V123.466Z" fill="white"/>
<path d="M51.8228 123.273C49.5597 115.388 47.209 107.528 44.9067 99.6551C44.276 97.5036 43.6514 95.3491 43.0328 93.1916L42.5258 94.0817C47.8367 92.5579 53.1445 91.019 58.4613 89.5162C63.1898 88.1795 67.9394 86.9302 72.6467 85.5301C74.4753 84.9869 76.3009 84.4257 78.1326 83.8976L77.2424 83.3907C77.8067 85.3551 78.3649 87.3225 78.9201 89.2869C79.8797 92.6635 80.8423 96.0401 81.8049 99.4137C82.4205 101.574 83.03 103.741 83.6637 105.895C84.59 109.055 85.5255 112.211 86.4669 115.364C87.2575 118.026 88.0542 120.684 88.8297 123.349C88.8659 123.472 88.9021 123.596 88.9383 123.72C89.1948 124.613 90.5919 124.233 90.3354 123.334C89.6565 120.965 88.9413 118.608 88.2412 116.245C87.2666 112.965 86.2949 109.682 85.3233 106.399C84.7077 104.314 84.1133 102.223 83.5158 100.132C82.5623 96.7854 81.6087 93.436 80.6552 90.0896C80.0004 87.7932 79.3486 85.4969 78.6938 83.2036L78.6365 83.0014C78.5248 82.6182 78.1295 82.3949 77.7463 82.4945C74.3365 83.4752 70.9509 84.5464 67.532 85.4939C61.9104 87.057 56.2887 88.62 50.6792 90.2284C47.8306 91.0431 44.9851 91.8608 42.1366 92.6756C41.7533 92.7872 41.53 93.1825 41.6296 93.5657C43.8897 101.441 46.2434 109.293 48.5428 117.16C49.1734 119.32 49.8011 121.484 50.4227 123.647C50.6792 124.541 52.0763 124.16 51.8198 123.261L51.8228 123.273Z" fill="#211715"/>
<path d="M54.11 103.949C57.221 103.056 60.3261 102.154 63.4401 101.276C66.2072 100.494 68.9894 99.7607 71.7444 98.943C72.8126 98.6261 73.8778 98.2972 74.952 97.9894C75.8452 97.7329 75.465 96.3328 74.5657 96.5923C72.5681 97.1687 70.5856 97.7933 68.582 98.3515C65.2899 99.2658 61.9978 100.183 58.7117 101.125C57.049 101.601 55.3864 102.078 53.7237 102.552C52.8306 102.808 53.2108 104.206 54.11 103.949Z" fill="#211715"/>
<path d="M55.6217 109.909C58.7297 109.015 61.8378 108.113 64.9519 107.235C67.7189 106.454 70.5011 105.72 73.2561 104.903C74.3243 104.586 75.3895 104.257 76.4637 103.949C77.3569 103.693 76.9767 102.292 76.0775 102.552C74.0799 103.128 72.0974 103.753 70.0937 104.311C66.8016 105.225 63.5095 106.143 60.2234 107.084C58.5608 107.561 56.8981 108.038 55.2355 108.512C54.3423 108.768 54.7225 110.165 55.6217 109.909Z" fill="#211715"/>
<path d="M48.5487 124.257C53.2681 124.257 57.9845 124.181 62.7039 124.148C69.1131 124.103 75.5193 124.197 81.9285 124.212C85.1361 124.218 88.3437 124.212 91.5483 124.212C92.4807 124.212 92.4807 122.763 91.5483 122.763C84.2972 122.763 77.0461 122.769 69.798 122.691C64.9127 122.637 60.0243 122.721 55.142 122.763C52.9452 122.781 50.7454 122.812 48.5487 122.812C47.6163 122.812 47.6163 124.26 48.5487 124.26V124.257Z" fill="#211715"/>
<path d="M76.3733 71.3659C76.3612 72.944 76.8772 73.8131 76.9677 75.3158C76.9768 80.4365 73.8537 84.9628 71.7957 89.6641C71.2194 90.9767 70.7728 92.6454 71.7173 93.7196C72.354 94.4438 73.4554 94.6128 74.3817 94.3533C75.3081 94.0938 76.0957 93.4843 76.8078 92.8355C80.5013 89.48 82.861 84.8964 86.319 81.2995C87.7916 79.7696 89.4482 78.4299 91.2557 77.3134L76.3703 71.3628L76.3733 71.3659Z" fill="#FDF5E6"/>
<path d="M75.649 71.3659C75.649 72.5608 76.0292 73.6561 76.1952 74.8239C76.3612 75.9917 76.1439 77.244 75.8783 78.3755C75.305 80.8197 74.1976 83.0919 73.0811 85.3279C72.5108 86.4716 71.9345 87.6092 71.4064 88.7709C70.9206 89.8391 70.4317 90.9646 70.4468 92.1626C70.4197 93.3545 71.1137 94.4469 72.206 94.9266C73.3467 95.4064 74.614 95.1831 75.6671 94.5977C76.7595 93.9912 77.6858 93.0528 78.5398 92.1535C79.4028 91.2302 80.2175 90.2616 80.981 89.2537C82.4958 87.2893 83.8868 85.2283 85.4801 83.3273C87.1126 81.3508 89.0317 79.6308 91.1742 78.2247C93.2713 76.8668 95.6129 75.865 97.4717 74.1571C99.4271 72.3646 100.592 69.8329 101.883 67.5608C103.003 65.5933 104.131 63.6289 105.251 61.6615C105.58 61.0821 105.912 60.4998 106.241 59.9174C106.699 59.1057 105.45 58.3754 104.988 59.1871C103.86 61.1787 102.728 63.1673 101.588 65.1528C101.008 66.1667 100.429 67.1806 99.8525 68.1975C99.2189 69.317 98.6093 70.4576 97.867 71.5077C96.4427 73.5294 94.3516 74.6972 92.2484 75.8921C90.0516 77.1112 88.0239 78.6139 86.2254 80.3671C82.7855 83.7829 80.4982 88.1553 77.0763 91.5832C76.2887 92.3738 75.4046 93.2791 74.3123 93.6231C73.5096 93.8765 72.4323 93.7649 72.0401 92.9079C71.6418 92.0328 72.0582 90.8862 72.4052 90.0624C72.8729 88.961 73.4191 87.8898 73.9532 86.8186C75.0636 84.5947 76.2073 82.3617 76.9435 79.9809C77.3026 78.8372 77.535 77.6574 77.6436 76.4624C77.7039 75.8288 77.6949 75.1921 77.6104 74.5614C77.535 74.0213 77.3992 73.4962 77.2815 72.9682C77.1608 72.4431 77.1004 71.909 77.0974 71.3719C77.0974 70.4395 75.646 70.4395 75.649 71.3719V71.3659Z" fill="#211715"/>
</g>
<path d="M125.893 82.285H136.792V80.983H123.73V78.946H139.27V84.343H125.893V82.285ZM124.507 82.285H127.027C126.628 84.28 126.082 86.632 125.641 88.165L123.121 87.871C123.604 86.38 124.171 84.133 124.507 82.285ZM125.389 85.582H138.619V87.682H124.759L125.389 85.582ZM137.968 85.582H140.488C140.488 85.582 140.467 86.17 140.425 86.485C140.215 89.278 139.963 90.643 139.438 91.231C138.976 91.714 138.472 91.882 137.821 91.945C137.233 92.029 136.225 92.029 135.154 92.008C135.112 91.273 134.818 90.328 134.44 89.698C135.322 89.803 136.204 89.824 136.582 89.803C136.918 89.803 137.107 89.782 137.317 89.614C137.611 89.32 137.8 88.312 137.968 85.876V85.582ZM130.198 79.429H132.676V92.89H130.198V79.429ZM129.694 86.338L131.647 87.178C129.757 89.551 126.586 91.63 123.541 92.68C123.184 92.071 122.47 91.168 121.945 90.685C124.906 89.866 128.098 88.186 129.694 86.338ZM124.57 74.788H131.185V76.72H124.57V74.788ZM132.907 74.788H141.055V76.72H132.907V74.788ZM124.675 73.003L127.006 73.633C126.145 75.712 124.738 77.854 123.415 79.156C122.953 78.778 121.945 78.127 121.357 77.812C122.722 76.657 123.961 74.809 124.675 73.003ZM133.222 73.003L135.595 73.612C134.797 75.691 133.432 77.707 132.067 78.988C131.605 78.568 130.576 77.896 129.988 77.581C131.395 76.51 132.592 74.767 133.222 73.003ZM125.347 76.321L127.363 75.46C127.909 76.279 128.539 77.434 128.812 78.169L126.67 79.114C126.46 78.358 125.893 77.203 125.347 76.321ZM134.461 76.3L136.54 75.565C137.212 76.342 137.989 77.434 138.346 78.19L136.162 79.03C135.868 78.295 135.133 77.14 134.461 76.3ZM143.357 91V89.0014L148.659 83.8036C149.167 83.2915 149.589 82.8366 149.927 82.4389C150.265 82.0412 150.519 81.6559 150.688 81.283C150.857 80.9102 150.941 80.5124 150.941 80.0898C150.941 79.6076 150.832 79.195 150.613 78.8519C150.395 78.5039 150.094 78.2354 149.711 78.0465C149.328 77.8576 148.893 77.7631 148.406 77.7631C147.904 77.7631 147.464 77.8675 147.086 78.0763C146.708 78.2802 146.415 78.571 146.206 78.9489C146.002 79.3267 145.9 79.7766 145.9 80.2987H143.268C143.268 79.3292 143.489 78.4865 143.931 77.7706C144.374 77.0547 144.983 76.5004 145.759 76.1076C146.539 75.7148 147.434 75.5185 148.443 75.5185C149.467 75.5185 150.367 75.7099 151.143 76.0927C151.918 76.4755 152.52 77 152.947 77.6662C153.38 78.3324 153.596 79.093 153.596 79.9482C153.596 80.5199 153.487 81.0817 153.268 81.6335C153.049 82.1854 152.664 82.7969 152.112 83.468C151.565 84.1392 150.797 84.9521 149.808 85.9066L147.175 88.5838V88.6882H153.827V91H143.357ZM156.96 91L163.455 78.1435V78.0391H155.915V75.7273H166.319V78.0913L159.831 91H156.96ZM175.852 81.13V84.763H179.569V81.13H175.852ZM173.479 78.925H182.089V86.947H173.479V78.925ZM168.859 73.885H186.877V92.89H184.147V76.447H171.463V92.89H168.859V73.885ZM170.329 89.404H185.701V91.756H170.329V89.404ZM195.529 73.171L198.322 73.864C197.314 75.334 196.138 76.867 195.235 77.854L193.177 77.161C194.017 76.048 195.004 74.41 195.529 73.171ZM200.779 75.04L202.774 73.906C204.517 75.145 206.764 77.035 207.856 78.379L205.693 79.66C204.706 78.358 202.543 76.384 200.779 75.04ZM190.048 76.552C193.891 76.468 199.876 76.321 205.336 76.132L205.252 78.211C199.918 78.463 194.185 78.673 190.321 78.778L190.048 76.552ZM189.334 79.954H208.465V82.075H189.334V79.954ZM199.204 82.726L201.136 83.671C199.498 84.805 197.02 85.645 194.941 86.128C194.626 85.687 194.059 85.057 193.555 84.658C195.466 84.28 197.944 83.524 199.204 82.726ZM201.136 85.036L203.11 85.981C201.052 87.64 197.776 88.753 194.71 89.404C194.416 88.858 193.87 88.102 193.366 87.619C196.159 87.178 199.456 86.254 201.136 85.036ZM203.656 87.262L205.861 88.249C203.11 91.042 198.469 92.302 193.114 92.953C192.883 92.302 192.4 91.441 191.959 90.874C196.831 90.454 201.409 89.425 203.656 87.262ZM196.18 77.77L198.658 78.358C197.083 82.642 194.122 85.75 190.426 87.598C190.069 87.094 189.145 86.107 188.599 85.666C192.211 84.154 194.899 81.445 196.18 77.77ZM202.648 80.458C203.887 82.516 206.386 84.469 208.927 85.456C208.381 85.918 207.646 86.842 207.289 87.43C204.601 86.17 202.081 83.839 200.548 81.235L202.648 80.458ZM221.989 75.544H224.425V80.773H221.989V75.544ZM219.511 83.125H221.695V90.895C221.695 91.84 221.506 92.323 220.855 92.596C220.204 92.869 219.301 92.89 218.041 92.89C217.957 92.365 217.684 91.63 217.432 91.105C218.146 91.147 218.965 91.147 219.196 91.147C219.448 91.126 219.511 91.063 219.511 90.832V83.125ZM225.601 73.15L227.806 73.696C227.26 74.515 226.735 75.229 226.294 75.754L224.572 75.229C224.929 74.62 225.391 73.759 225.601 73.15ZM219.07 73.78L220.834 73.15C221.317 73.738 221.842 74.578 222.052 75.145L220.183 75.817C220.015 75.271 219.532 74.41 219.07 73.78ZM225.769 83.104L227.218 82.096C227.995 82.621 228.919 83.44 229.36 84.049L227.848 85.162C227.449 84.532 226.546 83.692 225.769 83.104ZM216.76 88.102C218.482 87.955 220.939 87.745 223.396 87.472L223.438 89.278C221.17 89.551 218.839 89.824 216.991 90.034L216.76 88.102ZM222.199 81.97L223.501 83.44C221.8 83.902 219.469 84.196 217.558 84.301C217.495 83.902 217.264 83.251 217.075 82.831C218.86 82.663 220.96 82.369 222.199 81.97ZM217.579 75.103H229.066V76.783H217.579V75.103ZM218.251 77.581H228.436V79.135H218.251V77.581ZM216.928 79.996H229.507V81.802H216.928V79.996ZM216.886 85.036H229.486V86.863H216.886V85.036ZM223.459 82.222H225.559C225.496 87.808 226.42 91.042 227.806 91.042C228.142 91.042 228.331 90.496 228.415 89.32C228.814 89.719 229.423 90.013 229.864 90.223C229.57 92.239 228.898 92.995 227.596 92.995C224.446 92.995 223.564 88.438 223.459 82.222ZM227.071 87.094L228.772 87.934C227.449 89.992 225.118 91.693 222.934 92.638C222.682 92.26 222.136 91.651 221.737 91.315C223.795 90.475 225.937 88.963 227.071 87.094ZM210.859 79.618H216.445V81.508H210.859V79.618ZM210.985 73.822H216.382V75.733H210.985V73.822ZM210.859 82.474H216.445V84.385H210.859V82.474ZM209.977 76.657H216.97V78.652H209.977V76.657ZM212.014 85.393H216.403V91.735H212.014V89.761H214.387V87.367H212.014V85.393ZM210.796 85.393H212.77V92.617H210.796V85.393ZM242.989 73.276H245.446V76.573H242.989V73.276ZM238.327 75.481H250.486V79.618H248.155V77.623H240.553V79.639H238.327V75.481ZM239.881 79.324H248.869V81.487H239.881V79.324ZM238.621 82.999H250.402V85.246H238.621V82.999ZM240.994 84.091H243.388C243.199 88.606 242.569 91.378 238.054 92.89C237.844 92.281 237.214 91.357 236.731 90.895C240.532 89.761 240.868 87.745 240.994 84.091ZM244.858 83.839H247.231V89.803C247.231 90.412 247.273 90.496 247.546 90.496C247.672 90.496 248.113 90.496 248.26 90.496C248.596 90.496 248.659 90.16 248.701 88.018C249.163 88.396 250.171 88.795 250.801 88.942C250.591 91.903 250.003 92.701 248.533 92.701C248.155 92.701 247.462 92.701 247.126 92.701C245.278 92.701 244.858 91.987 244.858 89.824V83.839ZM231.859 74.074H236.815V76.321H234.064V92.911H231.859V74.074ZM236.038 74.074H236.458L236.815 73.99L238.453 74.914C237.907 76.72 237.214 79.009 236.605 80.647C237.907 82.285 238.159 83.692 238.159 84.91C238.159 86.275 237.886 87.157 237.214 87.619C236.878 87.85 236.479 87.997 236.017 88.06C235.639 88.102 235.135 88.123 234.652 88.123C234.631 87.514 234.442 86.569 234.106 85.96C234.484 85.981 234.757 86.002 235.009 85.981C235.24 85.981 235.45 85.939 235.597 85.813C235.849 85.624 235.954 85.204 235.954 84.616C235.954 83.629 235.681 82.327 234.484 80.92C235.072 79.03 235.744 76.132 236.038 74.788V74.074ZM263.989 75.544H266.425V80.773H263.989V75.544ZM261.511 83.125H263.695V90.895C263.695 91.84 263.506 92.323 262.855 92.596C262.204 92.869 261.301 92.89 260.041 92.89C259.957 92.365 259.684 91.63 259.432 91.105C260.146 91.147 260.965 91.147 261.196 91.147C261.448 91.126 261.511 91.063 261.511 90.832V83.125ZM267.601 73.15L269.806 73.696C269.26 74.515 268.735 75.229 268.294 75.754L266.572 75.229C266.929 74.62 267.391 73.759 267.601 73.15ZM261.07 73.78L262.834 73.15C263.317 73.738 263.842 74.578 264.052 75.145L262.183 75.817C262.015 75.271 261.532 74.41 261.07 73.78ZM267.769 83.104L269.218 82.096C269.995 82.621 270.919 83.44 271.36 84.049L269.848 85.162C269.449 84.532 268.546 83.692 267.769 83.104ZM258.76 88.102C260.482 87.955 262.939 87.745 265.396 87.472L265.438 89.278C263.17 89.551 260.839 89.824 258.991 90.034L258.76 88.102ZM264.199 81.97L265.501 83.44C263.8 83.902 261.469 84.196 259.558 84.301C259.495 83.902 259.264 83.251 259.075 82.831C260.86 82.663 262.96 82.369 264.199 81.97ZM259.579 75.103H271.066V76.783H259.579V75.103ZM260.251 77.581H270.436V79.135H260.251V77.581ZM258.928 79.996H271.507V81.802H258.928V79.996ZM258.886 85.036H271.486V86.863H258.886V85.036ZM265.459 82.222H267.559C267.496 87.808 268.42 91.042 269.806 91.042C270.142 91.042 270.331 90.496 270.415 89.32C270.814 89.719 271.423 90.013 271.864 90.223C271.57 92.239 270.898 92.995 269.596 92.995C266.446 92.995 265.564 88.438 265.459 82.222ZM269.071 87.094L270.772 87.934C269.449 89.992 267.118 91.693 264.934 92.638C264.682 92.26 264.136 91.651 263.737 91.315C265.795 90.475 267.937 88.963 269.071 87.094ZM252.859 79.618H258.445V81.508H252.859V79.618ZM252.985 73.822H258.382V75.733H252.985V73.822ZM252.859 82.474H258.445V84.385H252.859V82.474ZM251.977 76.657H258.97V78.652H251.977V76.657ZM254.014 85.393H258.403V91.735H254.014V89.761H256.387V87.367H254.014V85.393ZM252.796 85.393H254.77V92.617H252.796V85.393ZM278.626 75.796V77.14H287.152V75.796H278.626ZM276.106 73.843H289.84V79.114H276.106V73.843ZM277.66 84.112V84.994H287.971V84.112H277.66ZM277.66 86.611V87.514H287.971V86.611H277.66ZM277.66 81.613V82.495H287.971V81.613H277.66ZM275.14 79.891H290.596V89.215H275.14V79.891ZM279.214 88.795L281.461 90.37C279.781 91.357 277.051 92.386 274.909 92.89C274.447 92.365 273.607 91.567 272.998 91.084C275.203 90.601 277.891 89.614 279.214 88.795ZM283.834 90.496L286.039 88.9C288.265 89.488 291.079 90.475 292.822 91.147L290.617 92.932C288.979 92.176 286.081 91.126 283.834 90.496ZM299.122 81.361V89.089H296.728V83.692H294.04V81.361H299.122ZM299.122 88.102C299.962 89.509 301.411 90.097 303.574 90.181C306.073 90.307 311.071 90.244 313.969 90.013C313.696 90.58 313.318 91.735 313.192 92.47C310.588 92.596 306.115 92.638 303.532 92.512C301.012 92.407 299.332 91.798 298.072 90.181C297.106 91 296.119 91.819 294.922 92.701L293.767 90.202C294.754 89.635 295.93 88.879 296.938 88.102H299.122ZM294.334 75.229L296.077 73.612C297.379 74.494 299.017 75.859 299.773 76.867L297.883 78.673C297.211 77.665 295.636 76.195 294.334 75.229ZM302.839 77.245L304.435 75.901C306.304 76.552 308.95 77.686 310.378 78.505L308.656 79.996C307.375 79.198 304.771 78.001 302.839 77.245ZM300.928 78.442H311.617V80.269H303.301V89.32H300.928V78.442ZM310.441 78.442H312.835V87.136C312.835 88.165 312.667 88.69 311.974 89.026C311.323 89.383 310.399 89.383 309.139 89.383C309.055 88.774 308.782 87.955 308.509 87.409C309.181 87.43 309.916 87.43 310.126 87.43C310.378 87.43 310.441 87.346 310.441 87.115V78.442ZM301.117 73.864H311.134V75.775H301.117V73.864ZM302.251 81.403H311.26V83.146H302.251V81.403ZM302.251 84.343H311.26V86.17H302.251V84.343ZM305.716 79.303H307.963V89.236H305.716V79.303ZM310.231 73.864H310.798L311.302 73.738L312.793 74.956C311.302 76.342 309.223 77.833 307.291 78.757C306.997 78.337 306.388 77.686 306.031 77.35C307.606 76.594 309.433 75.271 310.231 74.305V73.864ZM323.797 83.566H326.401V92.89H323.797V83.566ZM321.676 81.004V82.306H327.934V81.004H321.676ZM319.261 79.219H330.517V84.091H319.261V79.219ZM317.245 85.351H331.378V87.598H319.786V91.966H317.245V85.351ZM330.181 85.351H332.764V89.677C332.764 90.811 332.533 91.462 331.693 91.819C330.853 92.176 329.719 92.197 328.207 92.197C328.081 91.504 327.724 90.538 327.388 89.908C328.333 89.95 329.467 89.95 329.761 89.95C330.076 89.929 330.181 89.866 330.181 89.635V85.351ZM323.524 73.15H326.128V77.014H323.524V73.15ZM315.838 76.048H333.961V81.13H331.462V78.211H318.253V81.13H315.838V76.048ZM317.518 74.2L319.807 73.297C320.416 73.969 321.046 74.893 321.34 75.544L318.925 76.615C318.694 75.943 318.085 74.914 317.518 74.2ZM329.803 73.318L332.512 74.137C331.756 75.019 331 75.838 330.412 76.384L328.291 75.628C328.816 74.977 329.446 74.011 329.803 73.318ZM340.66 81.361V89.089H338.308V83.692H336.124V81.361H340.66ZM340.66 88.123C341.479 89.551 343.012 90.16 345.175 90.265C347.779 90.37 352.945 90.307 355.927 90.076C355.654 90.622 355.276 91.735 355.171 92.428C352.483 92.554 347.821 92.596 345.196 92.491C342.634 92.386 340.912 91.756 339.652 90.118C338.854 90.958 338.014 91.756 337.027 92.701L335.83 90.286C336.67 89.698 337.678 88.9 338.56 88.123H340.66ZM335.998 74.914L337.972 73.654C339.085 74.662 340.387 76.09 340.954 77.119L338.812 78.526C338.329 77.518 337.069 75.985 335.998 74.914ZM341.941 81.76H354.814V83.587H341.941V81.76ZM341.311 84.994H355.465V86.863H341.311V84.994ZM344.734 80.647H347.107V85.897H344.734V80.647ZM349.543 80.647H351.937V85.897H349.543V80.647ZM342.508 76.279H345.574V75.397H341.584V73.822H347.695V77.875H342.508V76.279ZM341.878 76.279H343.957V78.316C343.957 78.757 344.041 78.841 344.587 78.841C344.818 78.841 345.889 78.841 346.204 78.841C346.624 78.841 346.708 78.715 346.792 78.022C347.17 78.295 347.968 78.568 348.535 78.673C348.325 80.101 347.758 80.5 346.477 80.5C346.078 80.5 344.671 80.5 344.272 80.5C342.403 80.5 341.878 80.017 341.878 78.337V76.279ZM349.417 76.279H352.504V75.397H348.409V73.822H354.646V77.875H349.417V76.279ZM348.787 76.279H350.866V78.316C350.866 78.757 350.971 78.841 351.517 78.841C351.769 78.841 352.882 78.841 353.197 78.841C353.638 78.841 353.722 78.715 353.806 78.001C354.184 78.274 354.982 78.526 355.549 78.652C355.339 80.101 354.772 80.5 353.47 80.5C353.071 80.5 351.601 80.5 351.202 80.5C349.312 80.5 348.787 80.017 348.787 78.316V76.279ZM349.186 87.745L351.034 86.716C352.546 87.409 354.394 88.417 355.444 89.131L352.84 90.076C352.063 89.404 350.572 88.459 349.186 87.745ZM345.511 86.716L347.716 87.493C346.624 88.501 344.86 89.467 343.411 90.055C343.012 89.635 342.109 88.879 341.584 88.543C343.054 88.102 344.608 87.43 345.511 86.716ZM360.736 83.545H372.853V85.477H360.736V83.545ZM358.09 86.737H375.478V88.816H358.09V86.737ZM357.418 76.804H376.381V79.093H357.418V76.804ZM365.524 81.655H367.981V90.391C367.981 91.651 367.666 92.218 366.742 92.554C365.797 92.869 364.474 92.911 362.605 92.911C362.458 92.26 362.038 91.336 361.702 90.727C363.004 90.79 364.579 90.79 364.978 90.769C365.377 90.769 365.524 90.664 365.524 90.328V81.655ZM369.367 79.933L370.942 81.634C368.653 82.159 365.482 82.432 362.878 82.516C362.794 82.033 362.521 81.235 362.311 80.794C364.789 80.647 367.666 80.353 369.367 79.933ZM371.719 73.339L374.449 74.158C373.483 75.544 372.37 76.993 371.509 77.938L369.409 77.161C370.228 76.132 371.194 74.515 371.719 73.339ZM359.203 74.452L361.324 73.381C362.164 74.284 363.13 75.544 363.55 76.426L361.261 77.602C360.904 76.741 360.001 75.418 359.203 74.452ZM364.264 74.074L366.385 73.15C367.162 74.095 368.002 75.376 368.359 76.279L366.091 77.308C365.797 76.447 365.02 75.082 364.264 74.074ZM362.584 78.106L364.726 78.862C363.34 81.55 360.988 83.902 358.342 85.183C357.964 84.595 357.229 83.692 356.704 83.23C359.161 82.222 361.45 80.248 362.584 78.106ZM371.32 78.085C372.433 80.08 374.617 81.97 376.969 82.894C376.402 83.356 375.625 84.322 375.268 84.952C372.748 83.713 370.564 81.382 369.22 78.82L371.32 78.085Z" fill="white"/>
<path d="M162.205 135V133.977L166.045 129.773C166.496 129.28 166.867 128.852 167.159 128.489C167.451 128.121 167.667 127.777 167.807 127.455C167.951 127.129 168.023 126.788 168.023 126.432C168.023 126.023 167.924 125.669 167.727 125.369C167.534 125.07 167.269 124.839 166.932 124.676C166.595 124.513 166.216 124.432 165.795 124.432C165.348 124.432 164.958 124.525 164.625 124.71C164.295 124.892 164.04 125.148 163.858 125.477C163.68 125.807 163.591 126.193 163.591 126.636H162.25C162.25 125.955 162.407 125.356 162.722 124.841C163.036 124.326 163.464 123.924 164.006 123.636C164.551 123.348 165.163 123.205 165.841 123.205C166.523 123.205 167.127 123.348 167.653 123.636C168.18 123.924 168.593 124.312 168.892 124.801C169.191 125.29 169.341 125.833 169.341 126.432C169.341 126.86 169.263 127.278 169.108 127.688C168.956 128.093 168.691 128.545 168.312 129.045C167.938 129.542 167.417 130.148 166.75 130.864L164.136 133.659V133.75H169.545V135H162.205ZM175.688 135.159C174.831 135.159 174.102 134.926 173.5 134.46C172.898 133.991 172.438 133.311 172.119 132.42C171.801 131.527 171.642 130.447 171.642 129.182C171.642 127.924 171.801 126.85 172.119 125.96C172.441 125.066 172.903 124.384 173.506 123.915C174.112 123.441 174.839 123.205 175.688 123.205C176.536 123.205 177.261 123.441 177.864 123.915C178.47 124.384 178.932 125.066 179.25 125.96C179.572 126.85 179.733 127.924 179.733 129.182C179.733 130.447 179.574 131.527 179.256 132.42C178.938 133.311 178.477 133.991 177.875 134.46C177.273 134.926 176.544 135.159 175.688 135.159ZM175.688 133.909C176.536 133.909 177.195 133.5 177.665 132.682C178.134 131.864 178.369 130.697 178.369 129.182C178.369 128.174 178.261 127.316 178.045 126.608C177.833 125.9 177.527 125.36 177.125 124.989C176.727 124.617 176.248 124.432 175.688 124.432C174.847 124.432 174.189 124.847 173.716 125.676C173.242 126.502 173.006 127.67 173.006 129.182C173.006 130.189 173.112 131.045 173.324 131.75C173.536 132.455 173.841 132.991 174.239 133.358C174.64 133.725 175.123 133.909 175.688 133.909ZM181.892 135V133.977L185.733 129.773C186.184 129.28 186.555 128.852 186.847 128.489C187.138 128.121 187.354 127.777 187.494 127.455C187.638 127.129 187.71 126.788 187.71 126.432C187.71 126.023 187.612 125.669 187.415 125.369C187.222 125.07 186.956 124.839 186.619 124.676C186.282 124.513 185.903 124.432 185.483 124.432C185.036 124.432 184.646 124.525 184.312 124.71C183.983 124.892 183.727 125.148 183.545 125.477C183.367 125.807 183.278 126.193 183.278 126.636H181.938C181.938 125.955 182.095 125.356 182.409 124.841C182.723 124.326 183.152 123.924 183.693 123.636C184.239 123.348 184.85 123.205 185.528 123.205C186.21 123.205 186.814 123.348 187.341 123.636C187.867 123.924 188.28 124.312 188.58 124.801C188.879 125.29 189.028 125.833 189.028 126.432C189.028 126.86 188.951 127.278 188.795 127.688C188.644 128.093 188.379 128.545 188 129.045C187.625 129.542 187.104 130.148 186.438 130.864L183.824 133.659V133.75H189.233V135H181.892ZM191.057 132.614V131.455L196.17 123.364H197.011V125.159H196.443L192.58 131.273V131.364H199.466V132.614H191.057ZM196.534 135V132.261V131.722V123.364H197.875V135H196.534ZM204.823 121.512L206.023 121.816C205.143 124.184 203.719 126.408 202.231 127.848C201.991 127.64 201.495 127.24 201.191 127.08C202.711 125.752 204.039 123.672 204.823 121.512ZM204.567 123.496H214.887V124.664H203.991L204.567 123.496ZM203.783 127.128H214.535V128.248H204.983V132.04H203.783V127.128ZM201.143 131.432H215.639V132.6H201.143V131.432ZM208.583 124.104H209.815V136.296H208.583V124.104ZM221.459 135.159C220.982 135.152 220.504 135.061 220.027 134.886C219.55 134.712 219.114 134.419 218.72 134.006C218.326 133.589 218.01 133.027 217.771 132.318C217.533 131.606 217.413 130.712 217.413 129.636C217.413 128.606 217.51 127.693 217.703 126.898C217.896 126.098 218.177 125.426 218.544 124.881C218.911 124.331 219.355 123.915 219.874 123.631C220.396 123.347 220.985 123.205 221.641 123.205C222.292 123.205 222.872 123.335 223.379 123.597C223.891 123.854 224.307 124.214 224.629 124.676C224.951 125.138 225.16 125.67 225.254 126.273H223.868C223.739 125.75 223.489 125.316 223.118 124.972C222.747 124.627 222.254 124.455 221.641 124.455C220.739 124.455 220.029 124.847 219.51 125.631C218.995 126.415 218.735 127.515 218.732 128.932H218.822C219.035 128.61 219.286 128.335 219.578 128.108C219.874 127.877 220.199 127.699 220.555 127.574C220.911 127.449 221.288 127.386 221.686 127.386C222.353 127.386 222.963 127.553 223.516 127.886C224.069 128.216 224.512 128.672 224.845 129.256C225.179 129.835 225.345 130.5 225.345 131.25C225.345 131.97 225.184 132.629 224.862 133.227C224.54 133.822 224.088 134.295 223.504 134.648C222.925 134.996 222.243 135.167 221.459 135.159ZM221.459 133.909C221.936 133.909 222.364 133.79 222.743 133.551C223.125 133.312 223.427 132.992 223.646 132.591C223.87 132.189 223.982 131.742 223.982 131.25C223.982 130.769 223.874 130.331 223.658 129.938C223.446 129.54 223.152 129.223 222.777 128.989C222.406 128.754 221.982 128.636 221.504 128.636C221.144 128.636 220.809 128.708 220.499 128.852C220.188 128.992 219.915 129.186 219.68 129.432C219.449 129.678 219.268 129.96 219.135 130.278C219.002 130.593 218.936 130.924 218.936 131.273C218.936 131.735 219.044 132.167 219.26 132.568C219.48 132.97 219.779 133.294 220.158 133.54C220.54 133.786 220.974 133.909 221.459 133.909ZM230.423 122.408H238.775V123.576H230.423V122.408ZM230.423 126.264H238.839V127.416H230.423V126.264ZM230.295 130.136H238.759V131.288H230.295V130.136ZM229.687 122.408H230.903V127.352C230.903 130.12 230.503 133.896 227.751 136.296C227.575 136.04 227.095 135.608 226.839 135.432C229.415 133.176 229.687 129.928 229.687 127.352V122.408ZM238.247 122.408H239.495V134.52C239.495 135.368 239.271 135.784 238.663 135.992C238.039 136.2 236.983 136.216 235.255 136.216C235.175 135.864 234.951 135.288 234.743 134.952C236.071 135 237.383 134.984 237.751 134.984C238.119 134.968 238.247 134.856 238.247 134.504V122.408ZM247.67 123.364V135H246.261V124.841H246.193L243.352 126.727V125.295L246.261 123.364H247.67ZM252.629 122.648H263.109V136.04H261.845V123.864H253.861V136.104H252.629V122.648ZM253.445 128.2H262.373V129.384H253.445V128.2ZM253.429 133.864H262.405V135.064H253.429V133.864ZM276.933 128.92C276.933 125.8 278.197 123.272 280.117 121.32L281.077 121.816C279.221 123.72 278.085 126.072 278.085 128.92C278.085 131.784 279.221 134.136 281.077 136.04L280.117 136.536C278.197 134.584 276.933 132.056 276.933 128.92ZM284.629 122.648H295.109V136.04H293.845V123.864H285.861V136.104H284.629V122.648ZM285.445 128.2H294.373V129.384H285.445V128.2ZM285.429 133.864H294.405V135.064H285.429V133.864ZM304.117 124.168H307.397V125.016H304.117V124.168ZM303.845 122.168H307.877V127.08H303.829V126.2H306.821V123.032H303.845V122.168ZM308.757 124.168H312.133V125.016H308.757V124.168ZM308.533 122.168H312.645V127.08H308.517V126.2H311.589V123.032H308.533V122.168ZM305.269 130.52H312.373V131.368H305.269V130.52ZM305.269 132.6H312.373V133.448H305.269V132.6ZM305.317 134.776H313.173V135.704H305.317V134.776ZM305.637 126.856L306.757 127.192C306.036 128.744 304.853 130.456 303.557 131.56C303.381 131.336 303.045 130.952 302.837 130.76C304.005 129.768 305.109 128.184 305.637 126.856ZM305.733 128.344H312.773V129.288H305.733V136.2H304.629V129.32L305.557 128.344H305.733ZM308.981 126.952L310.165 127.224C309.813 127.928 309.413 128.664 309.093 129.16L308.197 128.888C308.469 128.328 308.821 127.496 308.981 126.952ZM308.213 129.064H309.285V135.128H308.213V129.064ZM299.605 122.568H303.173V133.192H299.605V132.12H302.085V123.656H299.605V122.568ZM299.669 127.256H302.645V128.328H299.669V127.256ZM299.045 122.568H300.117V134.52H299.045V122.568ZM316.629 122.648H327.109V136.04H325.845V123.864H317.861V136.104H316.629V122.648ZM317.445 128.2H326.373V129.384H317.445V128.2ZM317.429 133.864H326.405V135.064H317.429V133.864ZM334.677 128.92C334.677 132.056 333.413 134.584 331.493 136.536L330.533 136.04C332.389 134.136 333.525 131.784 333.525 128.92C333.525 126.072 332.389 123.72 330.533 121.816L331.493 121.32C333.413 123.272 334.677 125.8 334.677 128.92Z" fill="white"/>
<defs>
<clipPath id="clip0_685_2197">
<rect width="79.8587" height="103" fill="white" transform="translate(30 49)"/>
</clipPath>
</defs>
</svg>
