<svg width="25" height="25" viewBox="0 0 25 25" fill="none" xmlns="http://www.w3.org/2000/svg">
<g clip-path="url(#clip0_568_2119)">
<path d="M9 13.5H4L12.5 22.5L21 13.5H16V9.5H9V13.5Z" fill="#68C1F2"/>
<path d="M24.27 4.67596L24.2714 4.67743C24.3425 4.75165 24.4002 4.84138 24.4399 4.94206C24.4796 5.04277 24.5002 5.15162 24.5 5.26207V5.26316V22.3684C24.5 23.5681 23.5787 24.5 22.5 24.5H2.5C1.42125 24.5 0.500001 23.5681 0.500001 22.3684L0.500002 5.26316L0.500001 5.26247C0.499848 5.15191 0.520538 5.04296 0.56031 4.94214C0.60007 4.84136 0.657774 4.7515 0.728889 4.67712L0.730001 4.67595L4.47875 0.729903L4.47923 0.729396C4.54991 0.654787 4.63249 0.597073 4.72151 0.558241C4.81045 0.519439 4.90483 0.499898 4.99946 0.500001H5L20 0.500002L20.0008 0.500001C20.0953 0.499856 20.1896 0.519364 20.2785 0.55814C20.3675 0.596948 20.45 0.654646 20.5206 0.729245L20.5212 0.729902L24.27 4.67596ZM5.5175 2.13158H5.30284L5.155 2.28721L3.905 3.60299L3.10284 4.44737H4.2675H20.7325H21.8972L21.095 3.60299L19.845 2.28721L19.6972 2.13158H19.4825H5.5175ZM12.1375 21.397L12.5 21.7786L12.8625 21.397L19.1125 14.8181L19.9147 13.9737H18.75H15.5V10.5263V10.0263H15H10H9.5V10.5263V13.9737H6.25H5.08534L5.8875 14.8181L12.1375 21.397Z" stroke="#333333"/>
</g>
<defs>
<clipPath id="clip0_568_2119">
<rect width="25" height="25" fill="white"/>
</clipPath>
</defs>
</svg>
