<svg width="76" height="76" viewBox="0 0 76 76" fill="none" xmlns="http://www.w3.org/2000/svg">
<g filter="url(#filter0_d_721_7)">
<circle cx="38" cy="37" r="37" fill="#A7A7A7"/>
<path d="M38 0C46.8098 1.05056e-07 55.3305 3.14346 62.0296 8.86498C68.7286 14.5865 73.1663 22.5106 74.5445 31.2119C75.9226 39.9133 74.1508 48.8209 69.5477 56.3325C64.9446 63.8441 57.8123 69.4667 49.4336 72.1891C41.055 74.9115 31.9799 74.5549 23.8407 71.1835C15.7015 67.8122 9.03232 61.6472 5.03275 53.7976C1.03318 45.948 -0.0342978 36.9289 2.02232 28.3625C4.07893 19.7961 9.12466 12.2446 16.252 7.06636L38 37V0Z" fill="#D97E7E"/>
<path d="M38 0C44.8236 8.13709e-08 51.5143 1.88698 57.3324 5.45231C63.1505 9.01765 67.8694 14.1225 70.9672 20.2024C74.0651 26.2822 75.4213 33.1004 74.8859 39.903C74.3506 46.7056 71.9445 53.2276 67.9336 58.7481C63.9228 64.2685 58.4635 68.5723 52.1593 71.1835C45.8551 73.7948 38.9515 74.6119 32.2119 73.5445C25.4723 72.477 19.1592 69.5666 13.9704 65.135C8.7817 60.7034 4.91953 54.9233 2.81091 48.4336L38 37V0Z" fill="#7E81D9"/>
<path d="M38 0C45.8136 9.31766e-08 53.4267 2.47363 59.7481 7.06637C66.0694 11.6591 70.7745 18.1352 73.1891 25.5664C75.6036 32.9976 75.6036 41.0024 73.1891 48.4336C70.7745 55.8648 66.0694 62.3409 59.7481 66.9336L38 37V0Z" fill="#85D97E"/>
</g>
<defs>
<filter id="filter0_d_721_7" x="0" y="0" width="76" height="76" filterUnits="userSpaceOnUse" color-interpolation-filters="sRGB">
<feFlood flood-opacity="0" result="BackgroundImageFix"/>
<feColorMatrix in="SourceAlpha" type="matrix" values="0 0 0 0 0 0 0 0 0 0 0 0 0 0 0 0 0 0 127 0" result="hardAlpha"/>
<feOffset dy="1"/>
<feGaussianBlur stdDeviation="0.5"/>
<feComposite in2="hardAlpha" operator="out"/>
<feColorMatrix type="matrix" values="0 0 0 0 0 0 0 0 0 0 0 0 0 0 0 0 0 0 0.25 0"/>
<feBlend mode="normal" in2="BackgroundImageFix" result="effect1_dropShadow_721_7"/>
<feBlend mode="normal" in="SourceGraphic" in2="effect1_dropShadow_721_7" result="shape"/>
</filter>
</defs>
</svg>
