<?xml version="1.0" encoding="UTF-8"?>
<svg id="_レイヤー_1" data-name="レイヤー 1" xmlns="http://www.w3.org/2000/svg" viewBox="0 0 526 518.53">
  <defs>
    <style>
      .cls-1 {
        fill: #5f5f5f;
      }

      .cls-1, .cls-2, .cls-3 {
        stroke-width: 0px;
      }

      .cls-2, .cls-4 {
        fill: #79bae7;
      }

      .cls-3 {
        fill: #fff;
      }

      .cls-4 {
        font-family: KozGoPr6N-Bold-83pv-RKSJ-H, 'Kozuka Gothic Pr6N';
        font-size: 55px;
        font-weight: 700;
      }
    </style>
  </defs>
  <g>
    <path class="cls-1" d="m526,259.27c-5.9,345.71-520.15,345.66-526-.01,5.9-345.7,520.15-345.65,526,.01Z"/>
    <g>
      <path class="cls-3" d="m382.03,469.11C619.55,330.59,479.68-25.6,213.42,25.69-2.03,74.59-48.4,355.39,142.65,468.91c.5-28.15-.19-56.03.2-84.16.02-2.72-.94-3.84-3.43-4.82-24.78-9.13-22.5-45.85,2.75-53.89,2.42-.82,3.66-1.94,4.22-4.44,2.91-13.66,11.45-24.19,21.74-33.12-51.11-13-71.03-67.27-39.95-110.06,2.37-3.67,3.33-7.19,3.26-11.72-.54-36.91,14.38-67.43,40.71-92.37,78.16-78.09,223.5-19.01,220.72,92.52-.33,9.16,6.9,15.15,10.15,23.05,22.46,40.3-2.99,89.38-47.39,98.54,23.68,17.4,18.73,37.11,28.92,38.2,23.58,8.72,25.27,45.64.06,53.44-2.54.94-2.62,2.56-2.62,4.63.04,28.45.05,55.71.05,84.41Zm-119.29-125.95c-36.23,0-72.46,0-108.7.02-6.99-.79-14.82,4.62-13.58,11.64.82,5.62,4.29,8.1,11,7.86,5.71-.2,9.28,2.72,10.02,8.35.52,36.54-.13,73.14.12,109.7.02,10.87,6.39,17.13,16.97,17.12,56.1-.05,112.19-.12,168.29-.21,10.73-.02,16.38-5.68,16.42-16.46.06-16.97.03-33.94.02-50.92-.01-18.84.02-37.69-.11-56.53-.05-7.73,5-12.02,11.69-10.91,5.72.95,10.19-4.24,9.59-10.14-.6-5.82-5.26-9.51-12.27-9.52-36.48-.03-72.96-.01-109.45,0Zm-32.15-224.12c-28.81,63.97-77.96,45.06-67.6,68.53,9.46,38.3,33.37,63.65,70.45,76.45,14.5,3.29,8.87,17.51,20.14,23.67,10.81,6.37,23.32.24,26.01-12.96,1.15-5.62,3.76-8.65,9.5-10.41,40.12-11.39,67.9-44.6,73.2-85.83,1.21-4.73-4.23-3.71-7.26-3.91-46.94-1.43-94.77-16.66-124.44-55.54Zm-80.76,38.35c35.33-.51,60.76-30.14,70.01-61.97,2.2-10.92,13.87-11.88,17.72-1.36,25.12,49.09,84.57,63.88,135.78,61.28-12.27-126.68-207.05-133.86-223.51,2.05Zm209.24,167.18c-7.45-25.55-36.57-35.31-60.03-40.49-4.81-1.36-9.34,13.93-14.58,16.68-15.57,13.2-44.04,9.79-53.94-13.38-1.42-3.33-3.39-4.02-6.32-3.19-22.68,6.07-52.78,13.95-58.47,40.37h119.33c-8.74-34.32,43.73-33.98,34.17,0h39.83Zm-36.33-53.91c50.31,10.88,92.46-39.66,57.22-81.07-7.98,35-26.42,62.3-57.22,81.07Zm-178.87-80.69c-.41-.04-.82-.08-1.23-.12-31.21,45.69,9.35,89.19,58.86,81.55.13-.42.25-.84.38-1.27-31.04-18.3-49.81-45.43-58.01-80.16Zm149.33,126.32c.26,12.75,17.96,12.48,18.1-.23-.64-10.47-17.86-11.19-18.1.23Z"/>
      <path class="cls-3" d="m382.03,469.11c0-28.69,0-55.96-.05-84.41,0-2.07.08-3.69,2.62-4.63,25.2-7.8,23.52-44.73-.06-53.44-10.25-1.16-5.17-20.71-28.92-38.2,44.36-9.18,69.9-58.22,47.39-98.54-3.24-7.9-10.49-13.89-10.15-23.05,2.77-111.52-142.57-170.63-220.72-92.52-26.33,24.94-41.24,55.46-40.7,92.37.07,4.53-.89,8.05-3.26,11.73-31.01,42.74-11.23,97.09,39.95,110.06-10.29,8.93-18.83,19.46-21.74,33.12-.55,2.5-1.8,3.62-4.22,4.44-25.24,8.04-27.53,44.75-2.75,53.89,2.49.98,3.44,2.1,3.43,4.82-.38,28.13.3,56.01-.2,84.16C-48.41,355.37-2.01,74.56,213.42,25.69c266.3-51.27,406.11,304.94,168.61,443.42Z"/>
      <path class="cls-3" d="m262.74,343.16c36.48,0,72.96-.02,109.45,0,7.02,0,11.68,3.7,12.27,9.52.6,5.9-3.87,11.09-9.59,10.14-6.69-1.11-11.74,3.17-11.69,10.91.13,18.84.1,37.68.11,56.53.01,16.97.04,33.95-.02,50.92-.04,10.79-5.7,16.45-16.42,16.46-56.1.09-112.19.16-168.29.21-10.58,0-16.95-6.25-16.97-17.12-.25-36.56.4-73.16-.12-109.7-.73-5.63-4.31-8.56-10.02-8.35-6.71.24-10.18-2.24-11-7.86-1.19-6.99,6.54-12.45,13.58-11.64,36.23-.02,72.46-.02,108.7-.02Zm-5.36,82.76c-8.68-8.54-16.91-17.28-25.44-25.95-3.48-3.59-7.59-4.82-12.26-2.99-7.89,3.1-9.09,12.07-2.58,18.65,10.53,10.65,21.1,21.26,31.62,31.92,13.47,15.01,24.63-9.89,34.58-17.52,13.56-14.15,27.18-28.23,40.67-42.44,5.13-5.4,4.93-11.2-.19-16.18-4.38-4.26-10.4-3.97-15.3.75-17.18,17.85-34.13,35.65-51.1,53.75Z"/>
      <path class="cls-3" d="m230.59,119.05c29.67,38.88,77.5,54.11,124.44,55.54,3.02.21,8.48-.83,7.26,3.91-5.31,41.23-33.07,74.43-73.2,85.83-5.74,1.76-8.35,4.79-9.5,10.41-2.7,13.2-15.21,19.33-26.01,12.96-11.27-6.16-5.65-20.37-20.14-23.66-37.09-12.8-60.99-38.15-70.45-76.45-10.43-23.43,38.8-4.57,67.6-68.53Zm-3.84,71.55c.73-23.57-28.22-19.9-22.45,6.49,3.72,15.72,25.15,8.02,22.45-6.49Zm70.95-.28c-1.56,16.3,19.34,22.58,22.79,5.35,4.07-24.57-21.76-28.69-22.79-5.35Zm-34.66,47.39c7.21.68,25.84-9.82,16.48-18.78-7.68-5.15-13.52,16.55-27.81,1.48-12.58-10.25-14.88,17.36,11.33,17.3Z"/>
      <path class="cls-3" d="m149.82,157.4c16.52-136.04,211.31-128.6,223.51-2.05-51.2,2.6-110.66-12.19-135.78-61.28-3.81-10.46-15.53-9.62-17.72,1.36-9.25,31.83-34.68,61.46-70.02,61.97Z"/>
      <path class="cls-3" d="m359.07,324.58h-39.83c9.55-34.01-42.92-34.3-34.17,0h-119.33c5.7-26.43,35.79-34.3,58.46-40.37,2.93-.83,4.9-.14,6.32,3.19,9.9,23.18,38.37,26.58,53.94,13.38,5.33-2.85,9.69-17.98,14.58-16.68,23.46,5.17,52.58,14.94,60.03,40.49Z"/>
      <path class="cls-3" d="m322.74,270.67c30.8-18.76,49.24-46.06,57.22-81.07,35.26,41.45-6.97,91.95-57.22,81.07Z"/>
      <path class="cls-3" d="m143.87,189.98c8.2,34.74,26.97,61.87,58.01,80.16-.13.42-.25.84-.38,1.27-49.55,7.64-90.06-35.89-58.86-81.55.41.04.82.08,1.23.12Z"/>
      <path class="cls-3" d="m293.2,316.3c.25-11.42,17.46-10.69,18.1-.22-.15,12.71-17.84,12.98-18.1.22Z"/>
      <path class="cls-2" d="m257.38,425.92c16.97-18.1,33.92-35.9,51.1-53.75,4.9-4.73,10.92-5.02,15.3-.75,5.12,4.98,5.33,10.78.19,16.18-13.5,14.21-27.12,28.29-40.67,42.44-9.95,7.65-21.11,32.51-34.58,17.52-10.52-10.66-21.09-21.27-31.62-31.92-6.51-6.58-5.3-15.55,2.58-18.65,4.67-1.83,8.78-.6,12.26,2.99,8.52,8.67,16.76,17.41,25.44,25.95Z"/>
      <path class="cls-2" d="m226.74,190.59c2.7,14.51-18.73,22.22-22.46,6.49-5.77-26.4,23.19-30.06,22.46-6.49Z"/>
      <path class="cls-2" d="m297.69,190.32c1.04-23.35,26.87-19.21,22.79,5.35-3.46,17.23-24.35,10.96-22.79-5.35Z"/>
      <path class="cls-2" d="m263.03,237.71c-26.12.1-23.97-27.55-11.33-17.3,14.33,15.07,20.06-6.61,27.81-1.48,9.36,8.97-9.27,19.46-16.48,18.78Z"/>
    </g>
    <circle class="cls-2" cx="302.27" cy="316.82" r="9.5"/>
  </g>
  <text class="cls-4" transform="translate(73 130.47) rotate(118.92)"><tspan x="0" y="0">ミ</tspan></text>
  <text class="cls-4" transform="translate(43.79 185.52) rotate(102.44)"><tspan x="0" y="0">ラ</tspan></text>
  <text class="cls-4" transform="translate(31.43 246.51) rotate(86.19)"><tspan x="0" y="0">イ</tspan></text>
  <text class="cls-4" transform="translate(36.6 308.6) rotate(69.76)"><tspan x="0" y="0">投</tspan></text>
  <text class="cls-4" transform="translate(59.15 366.67) rotate(53.35)"><tspan x="0" y="0">票</tspan></text>
</svg>