<svg width="25" height="25" viewBox="0 0 25 25" fill="none" xmlns="http://www.w3.org/2000/svg">
<path d="M21.9606 8.08573L21.9162 8.42106L22.211 8.58697C23.5981 9.36773 24.5 10.8531 24.5 12.5C24.5 14.1469 23.5981 15.6323 22.211 16.413L21.9162 16.5789L21.9606 16.9143C21.9866 17.1113 22 17.3069 22 17.5C22 20.1744 19.5846 22.3177 16.915 21.9607L16.579 21.9157L16.4129 22.2113C15.6334 23.5981 14.1483 24.5 12.5 24.5C10.8517 24.5 9.36656 23.5981 8.58712 22.2113L8.42106 21.9158L8.08511 21.9606C5.4096 22.3177 3.0002 20.1749 3 17.5003C3.00028 17.3046 3.01343 17.109 3.03935 16.915L3.0842 16.5792L2.789 16.413C1.40186 15.6323 0.5 14.1469 0.5 12.5C0.5 10.8531 1.40186 9.36773 2.789 8.58697L3.08376 8.42106L3.03944 8.08573C3.0134 7.88873 3 7.69314 3 7.5C3 4.8242 5.41025 2.6768 8.08409 3.03922L8.42069 3.08484L8.58712 2.78873C9.36656 1.40195 10.8517 0.5 12.5 0.5C14.1483 0.5 15.6334 1.40195 16.4129 2.78873L16.5794 3.08493L16.916 3.0392C19.5838 2.67684 22 4.82449 22 7.5C22 7.69314 21.9866 7.88873 21.9606 8.08573ZM10.838 18.3713L11.1902 18.728L11.546 18.3749L18.7322 11.2424L19.0869 10.8903L18.7351 10.5354L16.975 8.76045L16.6229 8.40525L16.2678 8.7576L11.2149 13.772L8.7458 11.2712L8.39475 10.9157L8.03895 11.2665L6.25896 13.0215L5.90266 13.3727L6.2542 13.7288L10.838 18.3713Z" stroke="#333333"/>
<path d="M11.5634 14.8347L16.6171 9.81955L17.6731 10.8845L11.1973 17.3118L7.31733 13.3821L8.38523 12.3292L10.8554 14.8311L11.2076 15.1878L11.5634 14.8347Z" fill="#68C1F2" stroke="#68C1F2"/>
</svg>
