<svg width="31" height="18" viewBox="0 0 31 18" fill="none" xmlns="http://www.w3.org/2000/svg">
<path d="M7.5 6.71C8.37 6.71 9.09 7.43 9.09 8.3C9.09 9.185 8.37 9.905 7.5 9.905C6.615 9.905 5.895 9.185 5.895 8.3C5.895 7.43 6.615 6.71 7.5 6.71Z" fill="#A4A4A4"/>
<path d="M15.5 6.71C16.37 6.71 17.09 7.43 17.09 8.3C17.09 9.185 16.37 9.905 15.5 9.905C14.615 9.905 13.895 9.185 13.895 8.3C13.895 7.43 14.615 6.71 15.5 6.71Z" fill="#A4A4A4"/>
<path d="M23.5 6.71C24.37 6.71 25.09 7.43 25.09 8.3C25.09 9.185 24.37 9.905 23.5 9.905C22.615 9.905 21.895 9.185 21.895 8.3C21.895 7.43 22.615 6.71 23.5 6.71Z" fill="#A4A4A4"/>
</svg>
