<svg width="24" height="24" viewBox="0 0 24 24" fill="none" xmlns="http://www.w3.org/2000/svg">
<path d="M11.9995 12.98C15.1641 12.98 17.7295 10.4146 17.7295 7.25002C17.7295 4.08543 15.1641 1.52002 11.9995 1.52002C8.83494 1.52002 6.26953 4.08543 6.26953 7.25002C6.26953 10.4146 8.83494 12.98 11.9995 12.98Z" fill="#68C1F2" stroke="#333333" stroke-width="1.5" stroke-miterlimit="10"/>
<path d="M1.5 23.48L1.87 21.43C2.3071 19.0625 3.55974 16.9229 5.41031 15.3828C7.26088 13.8428 9.59246 12.9997 12 13C14.4104 13.0006 16.7443 13.8465 18.5952 15.3905C20.4462 16.9345 21.6971 19.0788 22.13 21.45L22.5 23.5" fill="#68C1F2"/>
<path d="M1.5 23.48L1.87 21.43C2.3071 19.0625 3.55974 16.9229 5.41031 15.3828C7.26088 13.8428 9.59246 12.9997 12 13C14.4104 13.0006 16.7443 13.8465 18.5952 15.3905C20.4462 16.9345 21.6971 19.0788 22.13 21.45L22.5 23.5" stroke="#333333" stroke-width="1.5" stroke-miterlimit="10"/>
</svg>
