<svg width="10" height="10" viewBox="0 0 10 10" fill="none" xmlns="http://www.w3.org/2000/svg">
<path fill-rule="evenodd" clip-rule="evenodd" d="M2 0.469727L3.76517 2.23489C3.91161 2.38134 3.91161 2.61877 3.76517 2.76522C3.61872 2.91167 3.38128 2.91167 3.23484 2.76522L2.37497 1.90536V3.49573C2.37499 3.49717 2.375 3.49862 2.375 3.50006V7.50005C2.375 8.1214 2.87868 8.62505 3.5 8.62505H5C5.2071 8.62505 5.375 8.79295 5.375 9.00005C5.375 9.20715 5.2071 9.37505 5 9.37505H3.5C2.46447 9.37505 1.625 8.5356 1.625 7.50005V4.10438C1.62499 4.10294 1.62497 4.1015 1.62497 4.10006V1.90541L0.765165 2.76522C0.61872 2.91167 0.381281 2.91167 0.234835 2.76522C0.0883884 2.61877 0.0883884 2.38134 0.234835 2.23489L2 0.469727Z" fill="#888888"/>
<path fill-rule="evenodd" clip-rule="evenodd" d="M8 9.53024L6.23485 7.76509C6.0884 7.61864 6.0884 7.38124 6.23485 7.23479C6.3813 7.08834 6.6187 7.08834 6.76515 7.23479L7.625 8.09464V6.50424C7.625 6.50284 7.625 6.50139 7.625 6.49994V2.49994C7.625 1.87862 7.1213 1.37494 6.5 1.37494H5C4.79289 1.37494 4.625 1.20704 4.625 0.999939C4.625 0.792829 4.79289 0.624939 5 0.624939H6.5C7.53555 0.624939 8.375 1.4644 8.375 2.49994V5.89559C8.375 5.89704 8.375 5.89849 8.375 5.89994V8.09459L9.23485 7.23479C9.3813 7.08834 9.6187 7.08834 9.76515 7.23479C9.9116 7.38124 9.9116 7.61864 9.76515 7.76509L8 9.53024Z" fill="#888888"/>
</svg>
