<?xml version="1.0" standalone="no"?>
<!DOCTYPE svg PUBLIC "-//W3C//DTD SVG 20010904//EN"
 "http://www.w3.org/TR/2001/REC-SVG-20010904/DTD/svg10.dtd">
<svg version="1.0" xmlns="http://www.w3.org/2000/svg"
 width="526.000000pt" height="526.000000pt" viewBox="0 0 526.000000 526.000000"
 preserveAspectRatio="xMidYMid meet">
<metadata>
Created by potrace 1.14, written by Peter Selinger 2001-2017
</metadata>
<g transform="translate(0.000000,526.000000) scale(0.100000,-0.100000)"
fill="#000000" stroke="none">
<path d="M2448 5215 c-1 -1 -46 -6 -98 -10 -51 -3 -96 -8 -100 -9 -3 -2 -30
-7 -60 -11 -95 -12 -103 -14 -210 -39 -330 -79 -613 -199 -880 -374 -47 -30
-87 -58 -90 -62 -3 -3 -21 -17 -40 -30 -19 -13 -40 -29 -47 -35 -6 -5 -37 -32
-69 -60 -99 -85 -230 -221 -305 -316 -19 -24 -37 -45 -41 -47 -5 -2 -8 -10 -8
-17 0 -7 -3 -15 -7 -17 -5 -1 -21 -23 -38 -48 -16 -25 -33 -47 -36 -50 -18
-15 -184 -326 -191 -358 0 -4 -13 -34 -28 -67 -33 -75 -96 -267 -115 -351 -60
-270 -79 -438 -79 -684 -1 -178 4 -255 25 -390 6 -41 12 -86 14 -100 2 -14 11
-59 20 -100 9 -41 18 -84 20 -94 36 -168 154 -468 253 -641 60 -104 176 -276
217 -321 5 -6 30 -35 55 -65 69 -82 222 -231 297 -289 109 -86 152 -117 237
-170 184 -116 347 -193 561 -267 100 -35 289 -86 355 -97 19 -3 45 -8 57 -10
11 -3 43 -7 70 -11 26 -4 59 -9 73 -11 154 -27 571 -26 750 1 19 3 53 8 75 10
38 4 57 8 115 21 14 3 45 10 69 15 23 5 62 14 85 21 22 6 47 13 55 14 15 3
167 52 191 61 8 4 17 7 20 7 7 2 65 25 120 48 60 26 254 121 260 128 3 3 21
14 40 24 37 20 201 126 210 136 3 3 23 18 45 34 22 17 71 57 110 90 266 231
476 514 614 826 18 41 39 89 46 105 58 132 138 432 161 610 3 22 7 51 10 65
25 151 25 523 -1 700 -3 19 -7 53 -10 75 -18 153 -98 451 -160 600 -64 154
-140 304 -196 389 -21 32 -39 62 -39 66 0 4 -9 15 -20 25 -11 10 -20 22 -20
26 0 5 -6 17 -14 26 -186 230 -291 339 -436 453 -18 14 -37 30 -44 35 -21 20
-181 130 -206 143 -14 7 -38 21 -55 31 -49 32 -264 137 -345 169 -141 56 -358
122 -450 137 -19 3 -43 8 -53 11 -11 3 -29 7 -40 9 -12 1 -42 6 -67 10 -143
22 -274 32 -440 33 -104 0 -190 -1 -192 -3z"/>
</g>
</svg>
