<svg width="25" height="26" viewBox="0 0 25 26" fill="none" xmlns="http://www.w3.org/2000/svg">
<path d="M14.1568 20.6216L15.0278 25.5H9.97224L10.8432 20.6248L10.9471 20.043L10.3562 20.0369C7.38982 20.0058 4.9138 19.8339 3.17957 18.995C2.3302 18.5842 1.67219 18.0184 1.22073 17.2329C0.821756 16.5387 0.567696 15.6441 0.511719 14.4804H24.4879C24.431 15.6309 24.175 16.5178 23.7738 17.2082C23.3189 17.9911 22.6561 18.558 21.8025 18.9716C20.0614 19.8151 17.5838 19.9981 14.6429 20.0338L14.0531 20.0409L14.1568 20.6216Z" fill="white" stroke="#231815" stroke-miterlimit="10"/>
<path d="M12.5 14.5255C12.5 11.9417 12.5 11.7571 12.5 7.32773C12.5 2.89832 19.5 2.89833 19.5 7.32773" stroke="#333333"/>
<path d="M12.5 11.0189C12.5 8.4214 12.5 8.79247 12.5 4.33963C12.5 -0.113213 5.5 -0.113206 5.5 4.33963" stroke="#333333"/>
</svg>
